<?xml version="1.0" standalone="no"?>
<!DOCTYPE svg PUBLIC "-//W3C//DTD SVG 20010904//EN"
 "http://www.w3.org/TR/2001/REC-SVG-20010904/DTD/svg10.dtd">
<svg version="1.0" xmlns="http://www.w3.org/2000/svg"
 width="225.000000pt" height="225.000000pt" viewBox="0 0 225.000000 225.000000"
 preserveAspectRatio="xMidYMid meet">
<metadata>
Created by potrace 1.14, written by Peter Selinger 2001-2017
</metadata>
<g transform="translate(0.000000,225.000000) scale(0.100000,-0.100000)"
fill="#000000" stroke="none">
<path d="M1161 1768 c-1 -327 0 -351 20 -402 27 -73 96 -148 167 -183 l57 -28
340 -2 340 -2 -100 33 c-181 59 -320 143 -458 275 -171 165 -289 363 -347 585
l-19 71 0 -347z"/>
<path d="M1087 2055 c-22 -109 -98 -278 -184 -408 -57 -86 -208 -239 -297
-302 -89 -62 -221 -131 -311 -161 l-70 -24 325 3 c315 2 326 3 365 24 91 51
153 135 174 238 8 42 11 152 9 365 -2 190 -6 290 -11 265z"/>
<path d="M1415 1081 c-89 -20 -184 -99 -226 -187 -23 -48 -23 -56 -25 -399 -1
-192 0 -339 3 -325 15 84 81 249 140 348 122 207 296 371 508 478 71 36 172
74 230 87 11 3 -119 5 -290 5 -170 -1 -323 -4 -340 -7z"/>
</g>
</svg>
